<?xml version="1.0" encoding="UTF-8"?>
<svg id="Layer_1" data-name="Layer 1" xmlns="http://www.w3.org/2000/svg" viewBox="0 0 615.58 580.92">
  <defs>
    <style>
      .cls-1 {
        fill: #4f5180;
      }

      .cls-1, .cls-2, .cls-3, .cls-4, .cls-5, .cls-6, .cls-7, .cls-8 {
        stroke-width: 0px;
      }

      .cls-2 {
        fill: #a2ba41;
      }

      .cls-3 {
        fill: #607047;
      }

      .cls-4 {
        fill: #f49b83;
      }

      .cls-5 {
        fill: #cb694c;
      }

      .cls-6 {
        fill: #a3ba40;
      }

      .cls-7 {
        fill: #7866a3;
      }

      .cls-8 {
        fill: #5c3a1b;
      }
    </style>
  </defs>
  <path class="cls-8" d="M411.01,575.08c-13.22,2.02-27.23-.34-40.81-1.78-33.94-3.59-68.52-1-101.55,7.59-1.02.27-1.64-1.06-.79-1.68,9.02-6.55,17.32-13.89,24.47-22.18.8-.93-.26-2.27-1.34-1.69-14.53,7.76-29.62,14.62-45.62,18.43-13.01,3.09-26.73,4.06-39.86,1.84-2.09-.36-1.98-3.43.14-3.6,11.03-.85,21.69-3.85,32.01-7.24,10.37-3.42,20.8-7.35,29.35-14.14,7.89-6.25,13.87-14.71,17.91-23.93,4.04-9.22,6.19-19.18,7.19-29.19,1.76-10.68,1.79-21.54.49-32.28-7.29-47.67-33.48-80.53-45.41-93.37-2.29-2.47-.42-6.44,2.95-6.3,8.64.33,17.16,2.62,23.62,8.2,9.04,7.83,12.19,20.41,13.71,32.27.31,2.4.6,4.9,1.86,6.98,1.77,2.89,5.05,4.39,7.87,6.27,3.33,2.23,6.07,5.05,8.38,8.24.39-.17.68-.55.64-1.07-1.45-16.74-3.42-33.73-10.92-48.7-4.58-9.13-11.06-17.16-16.55-25.78-3.43-5.4-6.52-11.2-8.37-17.29-1.3-4.27,3.64-7.65,7.18-4.94,6.86,5.24,13.23,11.23,18.92,17.82,1.17,1.35,3.37.33,3.1-1.43-1.63-10.69-4.37-27.06.89-43.25,4.49-13.83,18.34-17.12,23.4-1.88,5.12,15.45,3.5,31.52-2.15,46.74-.49,1.32,1.09,2.41,2.15,1.49,6.21-5.41,12.57-10.49,19.18-15.17,4.05-2.87,9.49,1.16,7.83,5.85-4.34,12.26-12.88,23.18-18.43,35.13-7.56,16.25-9.48,35.04-5.54,52.52.36,1.62,2.7,1.51,2.92-.14,2.22-16.15,7.45-31.99,16.79-45.33,9-12.88,22.11-23.24,37.04-27.77,2.42-.74,4.15,2.29,2.34,4.04-13.5,13.07-23.02,29.76-29.11,47.29-7.06,20.37-9.8,41.96-11.65,63.43-.73,11.31-1.38,23.23-.16,35.04,1.23,11.81,4.42,23.62,10.92,33.56,6.85,10.47,17.09,18.42,28.3,23.97,8.53,4.21,17.63,7.11,26.89,9.35,2.23.54,2.09,3.74-.18,4.08Z"/>
  <g>
    <path class="cls-3" d="M285.37,145.95c-1.13-.58-2.51-.11-3.05,1.04-5.32,11.39-5.75,25.36-1.04,36.99,4.62,11.42,14.48,21.89,25.97,26.61,1.45.6,3.09-.23,3.43-1.76,2.01-9.06,5.98-23.24.5-37.72-5.73-15.17-18.36-21.32-25.8-25.16Z"/>
    <path class="cls-3" d="M364.56,351.56c-1.84,1.02-3.98-.61-3.45-2.65,1.67-6.34,2.1-13.01,1.41-19.54-.83-7.81-3.22-15.43-3.48-23.28-.27-7.93,1.75-15.89,5.58-22.87,2.73-4.97,10.02-4.72,12.39.43,3.65,7.94,6.03,16.48,7.05,25.2.21,1.79,2.6,2.22,3.44.63,4.4-8.34,6.76-17.75,10.1-26.64,2.81-7.5,6.73-15.06,12.35-20.75,3.71-3.76,10.12-1.66,10.78,3.58.92,7.28-.1,14.94-2.18,21.99-.26.87.87,1.43,1.41.7,4.39-5.98,8.95-11.83,14.32-16.93,4.52-4.29,9.69-8.04,15.24-10.49,3.99-1.76,8.46,1.4,8.13,5.75-.69,8.86-4.1,17.52-9.78,24.37-9.08,10.96-22.82,16.67-34.23,25.29-.96.73-.14,2.23.99,1.82,5.04-1.85,10.29-3.15,15.61-3.87,1.32-.18,2.67-.16,3.96.14,6.14,1.44,6.16,7.14,4.54,11.4-3.56,9.31-13.25,14.99-22.97,17.21-9.72,2.21-19.83,1.69-29.75,2.61-7.44.69-15.14,2.39-21.44,5.9Z"/>
    <path class="cls-3" d="M283.42,313.36c1.18.8,2.81-.04,2.86-1.46.88-23.39,16.72-44.82,17.11-68.44.06-3.73-.32-7.65-2.82-10.61-1.38-1.64-3.36-2.74-5.5-2.71-4.17.05-6.45,3.95-8.2,7.42l-9.63,19.17c-.29.59-1.17.45-1.27-.2-2.85-17.74,8.55-37-.83-53.36-1.34-2.34-3.78-3.95-6.48-3.99-3.9-.05-5.61,3.13-6.89,6.08-3.03,7-3.44,17.01-6.35,22.27-.23.42-.84.42-1.08,0-2.07-3.65-1.56-8.67-2.51-12.92-2-9.01-4.05-18.16-8.57-26.2-4.19-7.46-10.89-13.95-19.08-16.15-1.16-.31-2.38.24-2.96,1.29-9.03,16.19-6.68,38.1,5.81,51.86,6.15,6.78,14.74,12.27,17.66,20.72.26.77-.56,1.47-1.29,1.09-9.39-4.84-21.45-14.06-26.24-7.82-12.34,16.11,28.29,33.52,43.86,42.1,1.25.69,1.93,2.17,1.48,3.53-.78,2.35-3.67,1.77-5.7.97-3.88-1.52-7.99-2.88-12.2-1.85-1.53.37-2.98,1.11-4.11,2.2-4.36,4.2-1.96,10.36,1.94,13.82,5.82,5.17,14.13,6.11,21.84,7.15,6.54.87,13.57,2.26,19.16,6.04Z"/>
    <path class="cls-3" d="M174.11,167.25c-.12.86-1.23,1.09-1.7.37-4.4-6.84-11.94-11.31-18.87-15.81-8.16-5.31-16.58-12.16-17.65-22.04-.12-1.08.05-2.2.62-3.14,1.77-2.92,5.4-1.96,8.2-.86l10.45,4.12c.52.2,1.13.18,1.57-.17.89-.71.24-2.02-.45-2.86-4.13-5.04-8.94-9.52-14.26-13.27-1.85-1.31-3.8-2.56-5.21-4.33-1.42-1.77-2.23-4.21-1.44-6.34.85-2.31,3.38-3.65,5.83-3.83,2.32-.17,4.61.49,6.83,1.19.11.03.19-.09.12-.18-5.57-6.23-11.27-12.88-12.96-21.05-1.63-7.9.79-16.03,4.2-23.41.46-1,1.68-1.37,2.63-.82,4.06,2.38,8.03,4.94,11.36,8.24,3.81,3.78,6.74,8.68,7.19,14.03.27,3.23-.36,6.46-.47,9.7-.11,3.12.35,6.46,2.3,8.87.11.13.32.11.41-.04,1.54-2.81,1.71-6.16,2.56-9.27,1.01-3.69,3.68-7.59,7.88-6.9,1.11.18,2.14.71,2.98,1.44,2.37,2.07,3.13,5.14,3.3,8.13.66,11.88-7.23,23.23-5.71,34.99.01.1.15.12.19.03l6.06-11.98c1.3-2.56,2.64-5.19,5.27-6.69.94-.54,2.03-.84,3.11-.79,4.2.22,5.74,4.78,5.85,8.6.57,19.29-17.59,35.02-20.2,54.05Z"/>
    <path class="cls-3" d="M428.82,253.53h0c-2.85-19.22,11.33-36.77,30.71-38.03h0s.02.1.02.1c2.77,19.14-11.33,36.6-30.62,37.91h-.1Z"/>
    <path class="cls-3" d="M386.5,105.73h0c-7.77-17.81,1.33-38.45,19.71-44.73h0s.04.1.04.1c7.68,17.75-1.37,38.29-19.66,44.6l-.1.03Z"/>
    <path class="cls-3" d="M515.63,102.02h0c-2.45-19.27,12.08-36.53,31.48-37.39h0s.01.1.01.1c2.38,19.2-12.07,36.36-31.39,37.28h-.11Z"/>
    <path class="cls-3" d="M549.28,391.86h0c-24.38,7.47-49.94-7.48-55.38-32.4h0s.13-.04.13-.04c24.3-7.36,49.72,7.51,55.22,32.3l.03.13Z"/>
    <path class="cls-3" d="M467.41,253.41h0c25.44,1.78,46.97-18.55,46.66-44.04h0s-.14,0-.14,0c-25.33-1.69-46.75,18.53-46.52,43.92v.14Z"/>
    <path class="cls-3" d="M90.72,267.83h0c-25.54,13.47-57.14,2.24-68.46-24.32h0s.14-.07.14-.07c25.47-13.33,56.9-2.16,68.26,24.25l.06.14Z"/>
    <path class="cls-3" d="M155.34,325.11h0c-29.73,13.44-64.61-1.38-75.56-32.12h0s.16-.07.16-.07c29.65-13.29,64.34,1.45,75.34,32.02l.06.17Z"/>
    <path class="cls-3" d="M391.24,170.96h0c-12.64-30.12,3.15-64.61,34.21-74.74h0s.07.16.07.16c12.49,30.03-3.22,64.34-34.11,74.52l-.17.06Z"/>
    <path class="cls-3" d="M584.43,362.59h0c-16.19,10.73-38.1,5.34-47.46-11.69h0s.09-.06.09-.06c16.16-10.63,37.95-5.27,47.32,11.65l.05.09Z"/>
    <path class="cls-3" d="M455.66,137.49c-.96.77-2.3-.16-1.94-1.33,1.75-5.65,1.42-12.03.34-17.95-1.44-7.89-5.08-15.37-5.19-23.38-.05-3.72.69-7.51,1.9-11.19,1.71-5.23,8.81-6.06,11.62-1.33,2.57,4.34,3.61,9.27,4.88,14.14.62,2.38,4.03,2.29,4.52-.12,1.06-5.25,1.4-10.86,2.73-15.76,1.98-7.28,5.15-14.36,10.16-20,5.64-6.35,12.86-9.27,20.67-11.84,2.99-.98,6.12,1.13,6.3,4.28.26,4.53,1.77,8.85,1.6,14.02-.3,9.54-5.4,18.42-12.12,25.2-5.35,5.4-12.51,8.66-18.69,13.03-1.37.97-.33,3.11,1.27,2.6,4.34-1.37,9.74-3.55,16.44-3.1,4.56.31,7.09,5.49,4.46,9.23-2.33,3.31-5.21,6.2-8.7,8.23-7.12,4.16-15.8,4.35-23.72,6.64-6.09,1.76-11.79,4.82-16.55,8.61Z"/>
    <path class="cls-3" d="M117.4,221.3c1.32.1,1.97-1.54.95-2.38-7.12-5.9-11.77-14.64-15.02-23.43-3.87-10.47-6.25-21.52-11.29-31.48-7.87-15.59-19.58-26.65-36.45-30.38-.54-.12-1.09.24-1.18.79-3.94,22.6,8.52,45.28,26.35,61.64.38.35.05.97-.45.85-13.14-3.2-23.43-4.91-38.76,5.2-.79.52-1.08,1.54-.67,2.39,7.61,15.88,24.67,16.32,39.32,18.05,13.47,1.59,23.08-2.34,37.21-1.23Z"/>
    <path class="cls-3" d="M514.46,191.63c-1.32,0-1.84-1.69-.76-2.45,7.56-5.32,12.88-13.67,16.82-22.18,4.68-10.13,7.93-20.96,13.73-30.5,9.07-14.92,21.61-25.03,38.73-27.42.55-.08,1.07.33,1.12.88,2.15,22.84-12.05,44.47-31.11,59.38-.41.32-.13.96.38.88,13.35-2.15,23.74-3.05,38.23,8.23.74.58.95,1.62.48,2.43-8.84,15.23-25.88,14.33-40.62,14.9-13.55.53-22.83-4.15-37-4.15Z"/>
    <path class="cls-3" d="M254.17,404.03c.82.82.28,2.22-.88,2.3-8,.53-16.47,1.69-22.49,6.5-5.98,4.77-9.85,11.61-14.6,17.61-3.61,4.56-7.38,7.61-12.34,8.92-2.78.73-5.6-1.05-6.06-3.89-1.62-9.87,2.18-18.17,10.33-29.32.7-.95-.23-2.25-1.35-1.89-6.27,2.01-11.95,7.98-15.62,13.25-4.3,6.17-7.56,13.06-12.36,18.85-3.74,4.51-7.9,7.09-13.11,7.84-2.76.4-5.46-1.64-5.84-4.4-1.12-8.2,2.41-16.75,7.58-24.14.79-1.13-.4-2.61-1.67-2.05-10.45,4.58-17.59,15.64-27.58,21.82-8.52,5.26-18.67,5.03-28.78,3.68-1.17-.16-1.96-1.28-1.7-2.44,2.06-9.1,6.18-18.38,13.75-24.16,5.03-3.83,11.28-7.15,17.68-8.77,7.48-1.89,15.14-2.4,21.22-5.91,1.24-.71.8-2.61-.63-2.73-8.66-.72-19.05-1.03-26.87-5.29-3.35-1.83-3.88-6.45-1.1-9.06,9.35-8.77,22.52-11.72,35.01-8.63,13.65,3.38,23.55,17.82,39.15,15.9.77-.09,1.07-1.06.49-1.57-5.92-5.33-12.4-11.7-12.68-19.68-.12-3.39,2.52-6.24,5.91-6.27,10.73-.09,19.98,5.36,27.36,16.43,4.81,7.21,19.54,19.46,27.19,27.09Z"/>
  </g>
  <g>
    <path class="cls-2" d="M337.99,302.64c-1.18,1.52-3.63.86-3.84-1.06-.79-7.05-3.41-13.93-6.54-20.36-4.06-8.34-9.01-16.27-12.33-24.92-2-5.21-3.38-10.82-3.53-16.37-.13-4.75,5.82-7.02,8.99-3.48,4.11,4.58,7.71,9.62,10.71,15.03.54.97,2.03.5,1.93-.6-1.12-12.02-8.56-23.3-8.97-35.54-.14-4.28.58-8.5,1.63-12.67.9-3.58,5.62-4.33,7.7-1.27,3.25,4.79,5.71,10.19,7.35,15.87.18.63,1.1.51,1.12-.15.63-18.91,6.28-35.47,19.77-49.07,2.47-2.49,6.67-1.77,8.13,1.42,1.16,2.53,2.16,4.93,2.88,8.52,1.26,6.24.71,12.59-1.27,18.64-2.44,7.43-7.84,13.43-12.75,19.51-4.03,4.99-6.97,10.64-8.3,16.78-.22,1.02,1.12,1.6,1.74.77,4.1-5.52,8.75-10.63,13.82-15.19,2.69-2.42,6.93-.46,6.9,3.16-.05,5.77-1.48,11.54-4.2,16.64-5.27,9.86-15.06,17.16-20.08,26.85-.57,1.1.88,2.12,1.74,1.23,3.67-3.8,7.6-7.33,11.74-10.52,2.94-2.26,7.17.21,6.56,3.87-.78,4.73-2.7,9.33-5.21,13.44-4.02,6.57-9.5,12.09-14.89,17.59-3.79,3.87-7.6,7.8-10.8,11.9Z"/>
    <path class="cls-2" d="M100.49,79.61c-.76-.13-1.47.4-1.57,1.16-.99,7.53,1.32,15.65,6.15,21.49,4.74,5.73,12.33,9.96,19.81,10.59.94.08,1.74-.7,1.65-1.64-.49-5.58-.8-14.47-6.59-21.81-6.07-7.69-14.46-8.93-19.45-9.78Z"/>
    <path class="cls-2" d="M201.07,252.17c.74,2.03-1.5,3.82-3.32,2.65-5.64-3.63-11.93-6.25-18.48-7.68-8.45-1.84-17.4-1.76-25.35-5.17-6.52-2.8-11.91-7.79-16.18-13.46-.04-.06-.09-.11-.13-.17-3.9-5.2,1.1-12.41,7.37-10.68,5.5,1.51,11.17,2.57,16.82,3.51,1.79.3,2.85-1.91,1.52-3.14-9.44-8.79-24.72-10.56-34.7-19.15-10.74-9.24-14.19-28.94-15.97-41.56-.38-2.71,2.17-4.84,4.8-4.08,4.99,1.44,10.46.63,16.28,2.63,11.45,3.94,20.18,10.47,26.83,20.59,5.62,8.54,9.82,20.81,14.05,30.26.54,1.21,2.33.86,2.4-.47.37-7.31,2.09-14.56,4.95-21.32,3.56-8.39,15.7-7.41,17.8,1.45,1.14,4.82,1.73,10.61.95,17.53-.91,8.07-2.83,16.03-3.22,24.14-.39,8.22.82,16.52,3.58,24.11Z"/>
    <path class="cls-6" d="M75.89,405.54c-.29.71.08,1.52.8,1.78,7.15,2.56,15.58,2.03,22.31-1.45,6.61-3.42,12.35-9.94,14.54-17.11.28-.91-.31-1.84-1.25-1.96-5.56-.7-14.31-2.29-22.72,1.82-8.8,4.3-11.79,12.24-13.68,16.93Z"/>
    <path class="cls-6" d="M512.01,141.33c0,.77.65,1.37,1.41,1.34,7.59-.34,15.19-4.02,20.1-9.79,4.82-5.67,7.67-13.87,6.98-21.35-.09-.94-.99-1.59-1.9-1.34-5.41,1.46-14.12,3.3-20.34,10.28-6.52,7.31-6.28,15.79-6.25,20.85Z"/>
    <path class="cls-6" d="M334.59,167.99c-.82,2.01-3.7,1.94-4.38-.13-3.24-9.97-8.48-19.29-15.35-27.21-5.28-6.1-11.54-11.42-15.82-18.26-4.08-6.52-6.16-14.13-7.05-21.77-.44-3.74-.2-6.82.4-9.94,1.13-5.87,7.78-8.83,12.82-5.62,1.86,1.18,3.7,2.64,5.83,4.78,2.88,2.89,5.34,6.18,7.4,9.71,2.7,4.61,5.4,9.21,8.09,13.84,1.01,1.73,3.59,1.36,4.08-.58,2.72-10.61,8.58-20.39,17.13-27.77,4.63-3.99,11.89-.29,11.38,5.81-.56,6.85-2.17,13.56-4.86,19.97-.49,1.17.85,2.26,1.87,1.51,3.29-2.43,7.04-4.26,11.05-5.41s7.58,2.73,6.17,6.64c-2.19,6.07-5.83,11.68-9.93,16.73-5.82,7.19-12.63,13.53-18.46,20.71-4.18,5.15-7.89,10.87-10.38,17.01Z"/>
    <path class="cls-6" d="M257.89,415.35c-.17-1.01-1.15-1.67-2.15-1.45-9.91,2.1-19.1,8.6-24.3,17.27-5.11,8.51-7.06,19.92-4.52,29.6.32,1.22,1.64,1.87,2.8,1.35,6.8-3.1,17.85-7.43,24.51-17.97,6.98-11.05,4.81-22.15,3.67-28.8Z"/>
    <path class="cls-6" d="M264.59,90.44c.17.62.98.77,1.35.25,3.57-5.1,9.46-8.22,14.95-11.31,6.43-3.62,13.15-8.12,14.96-15.45.25-1.03.17-2.14-.33-3.08-1.21-2.3-3.83-2.03-5.96-1.46-5.11,1.35-9.93,3.8-14.05,7.13-.23.19-.56-.05-.46-.33,2.14-5.56,6.75-9.83,10.92-14.15,4.75-4.92,9.36-10.83,8.82-17.81-.07-.95-.38-1.88-.95-2.64-1.8-2.43-4.59-1.65-6.77-.56-4.82,2.41-8.87,6.34-11.42,11.08-.33.61-1.02.97-1.68.76-.94-.29-.88-1.46-.7-2.35,1.43-7.22,1.82-14.72.34-21.93-1.4-6.8-4.54-13.34-9.46-18.23-.49-.49-1.29-.49-1.77.02-7.17,7.54-10.21,18.83-7.71,28.94,1,4.04,2.79,7.83,4.12,11.77,1.21,3.58,2.02,7.43,1.1,11.23-.08.35-.57.36-.69.02-1.56-4.73-3.9-9.2-6.9-13.17-.84-1.11-1.74-2.2-2.92-2.94s-2.66-1.1-3.97-.64c-2.01.7-2.97,2.97-3.41,5.05-.96,4.49-.6,9.26,1.03,13.55,3.1,8.18,10.34,14,15.13,21.33,2.99,4.56,5.02,9.75,6.41,14.92Z"/>
    <path class="cls-6" d="M443.56,336.8c-.95.12-1.4-1.13-.6-1.66,11.33-7.56,20.37-18.49,26.08-30.88,3.77-8.16,6.15-16.94,10.45-24.84,4.56-8.39,11.93-16.03,21.55-17.22,1.75-.22,3.55-.07,5.14.69,4.66,2.26,4.34,7.6,3.15,11.89-1.92,6.91-5.45,13.38-10.24,18.72-.61.67-.84,1.65-.44,2.47.77,1.56,2.64.93,3.9.15,7.96-4.88,14.19-12.33,22.43-16.72,10.19-5.43,23.06-5.47,33.29-.12,1.8.94,3.63,2.17,4.31,4.08.71,2.01-.04,4.22-.91,6.16-6.66,14.72-21.7,25.29-37.8,26.57-5.15.41-10.35-.06-15.47.65-4.66.64-9.43,2.46-12.39,6.03-.37.44-.04,1.11.53,1.11,6.43.06,12.85.6,19.19,1.62,3.49.56,7.07,1.31,9.77,3.85.65.61,1.21,1.32,1.61,2.12,2.41,4.77-1.06,8.99-4.85,11.46-8.02,5.21-18.3,5.71-27.71,4.04-9.41-1.67-18.36-5.29-27.59-7.79-7.63-2.06-15.73-3.34-23.39-2.39Z"/>
    <path class="cls-6" d="M370.96,410.5c6.83-20.01,17.99-40.25,33.84-48.71,3.81-2.04,8.37,1,8.09,5.31-.6,9.01-6.23,17.02-9.42,24.18-.43.97.56,1.95,1.54,1.55,5.69-2.35,10.37-6.88,14.32-11.67,4.53-5.49,8.44-11.54,13.67-16.37,5.13-4.73,11.48-8.1,18.25-9.81,6.89-1.74,12.61,5.16,9.69,11.65-4.9,10.88-16.64,18.99-20.41,21.98-.51.41-.19,1.24.47,1.21,12.44-.59,23.78-10.91,36.31-11.46,4.93-.22,10.09,1.81,14.54,4.85,3.79,2.59,3.21,8.46-1.03,10.22-4.89,2.03-10.34,2.72-15.48,4.12-1.2.33-1.12,2.06.11,2.27,9.35,1.55,17.84,3.97,24.62,9.39,7.24,5.8,12.32,14.23,14.09,23.33.28,1.42-.72,2.78-2.15,2.96-6.06.79-21.54,1.7-31.87-7.12-4.26-3.64-8.45-7.35-12.83-10.84-3.7-2.95-7.93-5.51-12.44-6.56-1.13-.26-2.11.84-1.67,1.91,2.19,5.3,5.62,10.07,8.09,15.27,1.84,3.87,3.1,8.32,2.98,12.33-.11,3.41-3.44,5.83-6.76,5.02-5.96-1.46-11.97-4.36-15.64-8.79-4.76-5.75-8.44-12.82-13.38-18.41-4.43-5.03-8.35-10.49-14.43-11.72-1.01-.2-1.87.77-1.54,1.74,1.98,5.77,5.61,10.9,8.32,16.4,1.79,3.63,3.18,7.72,3.5,11.62.37,4.57-3.72,8.17-8.19,7.15-5.17-1.17-10.1-4.13-13.4-8.05-4.83-5.72-7.74-12.91-13.81-17.28-4.99-3.59-11.11-5.89-16.6-5.83-.97.01-1.68-.91-1.37-1.83Z"/>
    <path class="cls-6" d="M121.42,141.61h0c-19.19,3-36.85-11.04-38.27-30.41h0s.1-.02.1-.02c19.12-2.93,36.69,11.03,38.16,30.32v.1Z"/>
    <path class="cls-6" d="M435.25,86.56h0c-17.46-18.59-15.31-48.12,4.65-63.99h0s.09.1.09.1c17.32,18.56,15.19,47.94-4.64,63.81l-.11.09Z"/>
    <path class="cls-6" d="M213.79,85.22h0c-23.47-9.97-33.42-37.86-21.56-60.43h0s.13.05.13.05c23.34,10,33.23,37.74,21.5,60.25l-.06.12Z"/>
    <path class="cls-6" d="M394.91,248.64h0c-15.47-28.77-3.08-64.62,26.86-77.68h0s.08.16.08.16c15.32,28.69,2.98,64.35-26.79,77.45l-.16.07Z"/>
    <path class="cls-6" d="M74.83,368.88h0c12.5-26.11,44.64-35.96,69.63-21.36h0s-.07.14-.07.14c-12.53,25.95-44.5,35.76-69.43,21.3l-.14-.08Z"/>
    <path class="cls-6" d="M91.33,239.09h0c28.2-6.54,55.97,12.4,60.17,41.04h0s-.15.03-.15.03c-28.1,6.42-55.72-12.42-60-40.92l-.02-.15Z"/>
    <path class="cls-2" d="M256.34,353.28c3.6,1.41,6.77-2.86,4.34-5.87-4.17-5.15-8.12-7.65-11.8-11.22-6.84-6.65-11.48-15.32-12.4-24.81-1.35-13.88-5.34-38.61-21.7-43.2-1.13-.32-2.35.07-3.1.98-8.04,9.75-3.13,21.81,1.37,34.44.56,1.57-1.32,2.87-2.6,1.8-12.2-10.17-12.65-22.27-21.33-30.35-8.78-8.18-15.78-9.33-27.03-9.9-1.91-.1-3.65,1.16-4.07,3.03-2.63,11.8-.86,24.61,8.51,35.18,7.57,8.54,16.47,16.14,27.2,19.88.94.33.71,1.69-.28,1.71-9.59.23-19.11,2.32-27.8,5.97-6.85,2.88-7.38,12.45-.9,16.08,5.72,3.2,12.18,5.09,18.74,5.34,10.02.39,19.79-2.83,29.72-4.23,14.66-2.07,29.86,0,43.13,5.19Z"/>
    <path class="cls-2" d="M521.6,261c-.26,2.89,2.45,5.16,5.26,4.4,7.56-2.04,17.18-1.78,23.68-1.04.01,0,.01.01.01.01.48.05.97.1,1.46.17.15.02.3.03.44.05,5.8.77,11.59,2.18,17.34,1.31,4.14-.63,8.05-2.15,11.74-4.15,4.03-2.18,3.58-8.09-.75-9.61-5.64-2-11.59-3.17-17.57-3.44-1.25-.06-1.51-1.78-.34-2.21,12.06-4.46,24.07-9.36,33.17-18.23,4.22-4.11,7.15-9.11,9.9-14.33,2.83-5.36-1.48-11.66-7.51-11-2.82.31-5.59.79-8.3,1.72-8.52,2.97-15.59,9.03-22.01,15.36-5.33,5.28-10.42,10.89-16.26,15.56-.71.57-1.7-.25-1.26-1.05,2.63-4.67,4.35-9.85,5.45-15.11.47-2.25.84-4.53,1.12-6.82.77-6.12-6.08-10.37-11.22-6.94-1.85,1.23-3.63,2.55-5.35,3.97-5.97,5.7-9.19,13.64-11.89,21.94-.01.05-.03.11-.05.16-.41,1.44-.82,2.83-1.22,4.18-2.71,9.07-5.11,16.7-5.84,25.11Z"/>
  </g>
  <g>
    <path class="cls-4" d="M259.3,128.02c-.04.53.61.81.95.39,1.03-1.25,2.73-3.13,5.12-4.6,6.18-3.8,11.65-2.9,14.61.96.66.86,1.18,1.64,2.18,2.08.73.32,1.98.65,3.1.94.53.14.5.89-.03,1-1.34.29-3.11.93-5.03,2.39-4.68,3.59-4.4,8.14-9.03,14.89-4.19,6.11-8.54,8.6-13.35,10.6-5.6,2.32-10.97,3.04-16.63,2.43-4.03-.44-8.03.86-11.15,3.44-2.84,2.35-6.12,4.52-8.63,6.11-.75.47-1.62-.33-1.24-1.13.55-1.17.99-2.37,1.34-3.56.1-.36-.31-.63-.61-.42-2.06,1.44-4.31,2.63-6.66,3.52-1.33.51-2.45-1.1-1.54-2.2,1.12-1.34,2.19-2.72,3.22-4.13.42-.57-.15-1.32-.82-1.12-1.93.58-3.99.72-6,.36-1.19-.21-1.3-1.87-.14-2.21,8.25-2.42,16.16-5.98,23.35-10.72.25-.17.15-.55-.15-.58-5.84-.6-11.17-4.1-14.9-8.66-3.93-4.8-6.3-10.68-8.11-16.62-1.47-4.8-2.59-10.03-1.81-14.89.3-1.86,2.64-2.48,3.8-.99,5.85,7.44,13,14,21.46,18.1.37.18.74-.29.46-.6-1.54-1.74-2.59-4.02-3.05-6.39-2.61-13.41-1.8-27.47,2.08-40.13.41-1.34,2.04-1.87,3.15-1,15.97,12.52,25.56,32.81,24.06,52.71Z"/>
    <path class="cls-7" d="M1.87,337.73c.96.47,1.96.87,2.96,1.21,3.34,1.15,6.85,1.82,10.14,3.13,2.78,1.1,5.36,2.66,8.06,3.96,2.69,1.3,5.58,2.36,8.58,2.37,2.4.02,3.98-1.17,5.74-2.56.38-.29.91.07.79.54-.33,1.27-.29,2.53.41,3.92.36.7.86,1.32,1.46,1.85,1.95,1.71,4.4,2.31,6.82,2.91,4.3,1.06,8.77,2.11,12.99,1.5.89-.13,1.4-1.06,1.08-1.9-1.35-3.43-3.1-6.77-5.24-9.69,3.57,2.68,6.44,4.18,6.99,3.53.64-.74-1.97-4.03-5.99-7.76,4.06,2.09,8.38,3.76,12.82,4.91,2.97.77,6.44,1.23,8.85-.68,1.76-1.39,2.47-3.72,2.81-5.94.38-2.56.38-5.22-.45-7.68-.82-2.45-2.52-4.69-4.87-5.77-2.06-.93-4.44-.94-6.64-.45-1.65.37-3.23,1.01-4.77,1.71-.22.09-.39-.2-.2-.34,2.51-1.93,5.22-3.77,7.17-6.29,2.3-2.97,3.7-6.89,2.81-10.54-.48-1.99-1.59-3.76-2.6-5.53-2.91-5.16-5.1-10.74-6.31-16.54-.25-1.21-.47-2.45-.99-3.58-.54-1.12-1.44-2.14-2.63-2.48-2.26-.65-4.41,1.25-5.86,3.09-5.52,6.99-8.81,15.61-9.92,24.45-1,8.03-.28,16.22,1.71,24.06-.42-.31-.78-.55-1.09-.73-.38-.24-.6-.64-.7-1.08-.02-.11-.06-.23-.1-.35-.52-1.34-2.06-1.98-3.38-1.36-.72-1.47-1.28-3.05-1.93-5-.08-.24-.43-1.09-1-.91-.61.17-.56.82-.47,1.07.71,2.14,1.83,3.71,2.87,5.18-.18.14-.34.31-.47.5-1.44-1.01-3-2.09-5.08-2.77-.26-.08-.9-.12-1.07.48-.18.56.68.9.92.99,1.93.63,3.49,1.18,4.93,1.89-.11.3-.16.62-.14.94.08,1.33,1.09,2.24,2.23,2.37.55.06,1.04.37,1.42.78.39.42.91.95,1.57,1.58-13.27-6.67-28.87-8.56-43.38-5.39-3.13.69-3.7,4.99-.82,6.39Z"/>
    <path class="cls-1" d="M406.51,38.97c-1.62.89-3.4,1.49-5,2.42-4.76,2.81-7.34,8.36-11.99,11.36-4.89,3.15-11.74,2.4-16.41-.81-.15-.1-.32.07-.22.21,2.21,3.06,2.41,7.64.26,10.9-2.7,4.11-7.86,6.1-12.7,6.39-1.1.06-7.88-.23-6.61-9.42.36-2.59,1.06-5.1,1.78-7.67-1.04,1.77-2.19,3.49-3.35,5.18-.36.51-1.16.24-1.12-.39.12-1.53.23-3.08.39-4.62-3.29,8.32-8.57,16.3-15.48,13.51-2.9-1.18-5.7-3.94-7.17-6.7-5.26-9.86,3.05-14.75,4.8-16.07-2.51.28-5.21.62-7.87.26-2.66-.36-5.33-1.48-6.97-3.6-1.84-2.36-2.18-5.53-3.35-8.29-2.09-4.9-6.68-8.19-9.88-12.43-.87-1.15-1.66-2.42-2.03-3.81-.38-1.4-.29-2.97.48-4.19,1.11-1.76,3.31-2.44,5.37-2.73,5.53-.79,11.21.28,16.4,2.31,5.2,2.03,9.99,4.99,14.62,8.1,3.51,2.35,6.99,4.83,9.78,8,2.46,2.78,4.87,6.19,5.14,9.82.44-.89.93-1.75,1.5-2.57.3-.41.25-.94.02-1.4-.13-.25-.21-.57-.22-.96-.03-1.16.57-2,1.59-2.37.22-.08.37-.29.33-.52-.22-1.28-.86-5.18-.69-5.7.01-.04.06-.07.1-.06.02,0,.03.01.04.02,1.38,1.02,1.32,5.72,1.32,5.74,0,.06,0,.2.02.25.03.07.73.13.76.1.02-.02.07-.2.08-.24h0c.65-2.17,1.91-4.75,3.28-5.21.05-.02.1,0,.11.05,0,0,0,.03,0,.04-.29,1.98-1.23,2.82-2.68,5.13-.16.25-.09.6.14.8.48.41.78,1.01.74,1.72-.05,1-.48,1.83-1,2.29-.7.72-.65,1.35-.56,1.95.03.22.05.43.07.63,10.92-9.18,24.99-13.77,39.13-11.24,16.22,2.89,10.57,11.85,7.03,13.81Z"/>
    <path class="cls-7" d="M430.05,165.56c-.28-.02-.32-.42-.05-.49,2.08-.55,3.71-1.68,5.22-3.21,2.01-2.04,3.8-4.42,6.36-5.7,2.42-1.2,5.32-1.25,7.88-.4,2.28.75,4.29,2.17,5.69,4.1.23.32.71.24.88-.11,3.9-8.31,11.6-14.45,20.03-18.15,7.53-3.31,15.66-4.9,23.83-6.16,1.13-.17,1.84,1.21,1.02,2-4.57,4.45-8.33,9.73-11.01,15.52-1.54,3.33-2.76,6.86-4.89,9.85-1.8,2.53-4.45,4.67-7.38,5.19-.41.07-.45.63-.06.79,10.54,4.24,22.84,3.85,32.95-1.13.95-.47,1.91.63,1.31,1.51-1.92,2.8-4.24,5.31-6.89,7.35-.3.23-.25.69.1.85,1.88.85,3.62,2.03,5.1,3.56.6.62.02,1.63-.82,1.44-4.93-1.12-10.23-.38-15.28.5-5.06.87-10.29,1.84-15.27,1.13-.7-.1-1.09.79-.56,1.24,5.69,4.86,11.81,9.2,18.3,12.75.96.53.65,1.98-.44,2.09-48.17,4.74-47.5-20.24-53.54-29.59-2.35-3.64-7.37-4.55-12.48-4.92Z"/>
    <path class="cls-5" d="M553.32,320.48c.48,6.6,5.9,12.17,12.21,14.12,4.21,1.3,8.71,1.2,13.03.19-1.69,1.42-3.22,3.02-4.52,4.83-.44.61.1,1.45.84,1.29,5.12-1.12,10.26-3.67,14.11-7.35.88-.83,2-1.32,3.19-1.49,2.03-.29,3.95-1.46,5.13-3.14.3-.44.83-.7,1.36-.67,1.04.08,2.11-.14,3.04-.6,1.48-.51,2.16-1.54,2.19-2.51,3.37-.25,4.7.18,6.74-.83.01,0,.03-.01.03-.02.04-.04.02-.1-.02-.12-1.29-.94-4.49-.38-6.79.41-.02-.08-.04-.15-.08-.23.01,0,.04-.02.05-.02,4.17-1.93,5.29-2.71,5.62-3.07.04-.04.02-.1,0-.12,0-.01-.02-.02-.04-.03-1.09-.47-3.9.92-5.97,2.6-.54-.64-1.51-.96-2.8-.53-1.18.53-2.2,1.36-2.97,2.33-.32.42-1.21.92-1.32.73.16-.14.31-.27.46-.41,1.62-1.3,3.12-2.74,4.42-4.38,9.83-12.42,16.05-29.19,13.96-44.34-.4-2.89-3.47-4.64-6.14-3.45-3.28,1.47-6.3,3.49-8.81,5.96-.38.38-1.02.18-1.11-.35-.55-3.2-1.64-6.32-3.27-9.25-2.03-3.62-7.19-3.57-9.17.08-1.34,2.45-2.9,4.8-4.48,7.12-3.15,4.62-6.46,9.23-8.32,14.5-1.75,4.94-2.1,10.63.11,15.17.12.25-.14.53-.39.39-4.19-2.21-9.55-2.11-13.62.33-4.36,2.61-7.04,7.79-6.67,12.86Z"/>
  </g>
</svg>