<?xml version="1.0" encoding="UTF-8"?>
<svg id="Layer_1" data-name="Layer 1" xmlns="http://www.w3.org/2000/svg" viewBox="0 0 1277.27 447.04">
  <defs>
    <style>
      .cls-1 {
        fill: #4f5180;
      }

      .cls-1, .cls-2, .cls-3, .cls-4, .cls-5, .cls-6, .cls-7, .cls-8, .cls-9 {
        stroke-width: 0px;
      }

      .cls-2 {
        fill: #a2ba41;
      }

      .cls-3 {
        fill: #607047;
      }

      .cls-4 {
        fill: #f49b83;
      }

      .cls-5 {
        fill: #cb694c;
      }

      .cls-6 {
        fill: #c8328a;
      }

      .cls-7 {
        fill: #a3ba40;
      }

      .cls-8 {
        fill: #7866a3;
      }

      .cls-9 {
        fill: #5c3a1b;
      }
    </style>
  </defs>
  <g>
    <path class="cls-9" d="M301.33,442.76c-9.69,1.48-19.96-.25-29.92-1.31-24.88-2.63-50.23-.73-74.45,5.56-.75.2-1.2-.78-.58-1.23,6.61-4.8,12.7-10.18,17.94-16.26.59-.68-.19-1.66-.98-1.24-10.65,5.69-21.72,10.72-33.45,13.51-9.54,2.27-19.6,2.98-29.22,1.35-1.53-.26-1.45-2.51.1-2.64,8.09-.62,15.9-2.82,23.47-5.31,7.6-2.51,15.25-5.39,21.52-10.37,17.95-14.25,22.16-61.55,18.76-83.76-5.34-34.95-24.55-59.04-33.29-68.45-1.68-1.81-.31-4.72,2.16-4.62,6.33.24,12.58,1.92,17.32,6.01,6.63,5.74,8.94,14.96,10.05,23.66.23,1.76.44,3.59,1.36,5.12,1.3,2.12,3.7,3.22,5.77,4.6,2.44,1.63,4.45,3.7,6.14,6.04.29-.12.5-.4.47-.78-1.06-12.27-2.51-24.73-8.01-35.7-3.36-6.69-8.11-12.58-12.13-18.9-2.51-3.96-4.78-8.21-6.14-12.68-.95-3.13,2.67-5.61,5.26-3.62,5.03,3.84,9.7,8.23,13.87,13.06.86.99,2.47.24,2.27-1.05-1.2-7.84-3.2-19.84.65-31.71,3.29-10.14,13.45-12.55,17.16-1.38,3.75,11.33,2.57,23.11-1.58,34.27-.36.97.8,1.77,1.58,1.09,4.55-3.97,9.22-7.69,14.06-11.12,2.97-2.1,6.96.85,5.74,4.29-3.18,8.99-9.44,16.99-13.51,25.76-5.54,11.91-6.95,25.69-4.06,38.5.26,1.19,1.98,1.11,2.14-.1,1.63-11.84,5.46-23.45,12.31-33.23,6.6-9.44,16.21-17.04,27.16-20.36,1.77-.54,3.04,1.68,1.72,2.96-9.9,9.58-16.88,21.82-21.34,34.67-5.18,14.93-7.18,30.76-8.54,46.5-4.1,47.57,5.97,77.82,28.64,89.01,6.25,3.09,12.93,5.21,19.71,6.85,1.63.4,1.53,2.74-.13,2.99Z"/>
    <g>
      <path class="cls-3" d="M209.22,107c-.83-.43-1.84-.08-2.24.77-3.9,8.35-4.21,18.6-.77,27.12,3.39,8.37,10.61,16.05,19.04,19.51,1.06.44,2.26-.17,2.51-1.29,1.48-6.64,4.38-17.04.37-27.66-4.2-11.12-13.46-15.63-18.92-18.45Z"/>
      <path class="cls-3" d="M267.28,257.74c-1.35.75-2.92-.45-2.53-1.94,1.22-4.65,1.54-9.54,1.04-14.32-.6-5.72-2.36-11.31-2.55-17.06-.2-5.81,1.28-11.65,4.09-16.76,2-3.65,7.34-3.46,9.08.32,2.67,5.82,4.42,12.08,5.17,18.47.15,1.31,1.91,1.63,2.52.46,3.23-6.11,4.96-13.01,7.4-19.53,2.06-5.5,4.93-11.04,9.05-15.22,2.72-2.76,7.42-1.22,7.9,2.63.67,5.34-.08,10.95-1.6,16.12-.19.63.64,1.05,1.03.52,3.22-4.38,6.56-8.67,10.5-12.41,3.32-3.15,7.1-5.9,11.18-7.69,2.92-1.29,6.2,1.03,5.96,4.21-.5,6.5-3.01,12.84-7.17,17.86-6.66,8.04-16.73,12.22-25.1,18.54-.7.53-.1,1.64.72,1.33,3.7-1.36,7.54-2.31,11.45-2.84.97-.13,1.96-.12,2.91.1,4.5,1.06,4.52,5.24,3.33,8.36-2.61,6.83-9.72,10.99-16.84,12.61-7.12,1.62-14.54,1.24-21.81,1.91-5.46.51-11.1,1.75-15.72,4.33Z"/>
      <path class="cls-3" d="M207.79,229.74c.87.59,2.06-.03,2.1-1.07.64-17.15,12.26-32.86,12.54-50.18.04-2.74-.24-5.61-2.07-7.78-1.01-1.2-2.46-2.01-4.03-1.99-3.06.04-4.73,2.9-6.01,5.44l-7.06,14.05c-.22.43-.86.33-.93-.15-2.09-13.01,6.27-27.13-.61-39.12-.98-1.72-2.77-2.9-4.75-2.92-2.86-.04-4.11,2.3-5.05,4.46-2.22,5.13-2.52,12.47-4.66,16.33-.17.31-.62.31-.79,0-1.52-2.67-1.15-6.35-1.84-9.47-1.47-6.6-2.97-13.31-6.29-19.21-3.07-5.47-7.98-10.23-13.99-11.84-.85-.23-1.74.18-2.17.94-6.62,11.87-4.9,27.93,4.26,38.02,4.51,4.97,10.81,8.99,12.95,15.19.19.56-.41,1.07-.94.8-6.89-3.55-15.73-10.31-19.23-5.74-9.05,11.81,20.74,24.58,32.15,30.86.92.51,1.42,1.59,1.09,2.59-.57,1.73-2.69,1.3-4.18.71-2.85-1.11-5.86-2.11-8.95-1.35-1.12.27-2.18.81-3.01,1.61-3.2,3.08-1.43,7.6,1.42,10.13,4.27,3.79,10.36,4.48,16.02,5.24,4.8.64,9.95,1.66,14.05,4.43Z"/>
      <path class="cls-3" d="M127.65,122.62c-.09.63-.9.8-1.24.27-3.23-5.02-8.76-8.29-13.84-11.59-5.98-3.9-12.16-8.92-12.94-16.16-.09-.79.04-1.62.45-2.3,1.3-2.14,3.96-1.44,6.01-.63l7.66,3.02c.38.15.83.13,1.15-.13.66-.52.18-1.48-.33-2.1-3.03-3.69-6.55-6.98-10.45-9.73-1.36-.96-2.78-1.88-3.82-3.17-1.04-1.3-1.64-3.09-1.06-4.65.62-1.69,2.48-2.67,4.28-2.81,1.7-.13,3.38.36,5.01.87.08.02.14-.07.08-.13-4.08-4.57-8.27-9.44-9.5-15.43-1.19-5.79.58-11.76,3.08-17.16.34-.73,1.23-1.01,1.93-.6,2.97,1.74,5.89,3.62,8.33,6.04,2.79,2.77,4.94,6.36,5.27,10.28.2,2.37-.26,4.74-.35,7.11-.08,2.29.26,4.73,1.69,6.5.08.1.24.08.3-.03,1.13-2.06,1.26-4.52,1.88-6.79.74-2.71,2.7-5.56,5.78-5.06.81.13,1.57.52,2.18,1.06,1.74,1.52,2.3,3.77,2.42,5.96.49,8.71-5.3,17.03-4.18,25.66,0,.07.11.09.14.02l4.45-8.78c.95-1.88,1.94-3.81,3.86-4.9.69-.4,1.49-.62,2.28-.58,3.08.16,4.2,3.51,4.29,6.31.42,14.14-12.9,25.67-14.81,39.62Z"/>
      <path class="cls-3" d="M314.38,185.88h0c-2.09-14.09,8.31-26.95,22.52-27.88h0s.01.08.01.08c2.03,14.03-8.3,26.83-22.45,27.8h-.08Z"/>
      <path class="cls-3" d="M283.36,77.51h0c-5.69-13.05.98-28.19,14.45-32.79h0s.03.07.03.07c5.63,13.02-1.01,28.07-14.41,32.7l-.07.03Z"/>
      <path class="cls-3" d="M378.03,74.8h0c-1.8-14.13,8.85-26.78,23.08-27.41h0s0,.08,0,.08c1.75,14.07-8.85,26.66-23.01,27.33h-.08Z"/>
      <path class="cls-3" d="M342.68,185.79h0c18.65,1.31,34.44-13.6,34.2-32.29h0s-.1,0-.1,0c-18.57-1.24-34.28,13.58-34.1,32.2v.1Z"/>
      <path class="cls-3" d="M66.51,196.35h0c-18.73,9.87-41.89,1.64-50.19-17.83h0s.1-.05.1-.05c18.68-9.77,41.72-1.59,50.05,17.78l.05.11Z"/>
      <path class="cls-3" d="M113.88,238.35h0c-21.8,9.85-47.37-1.01-55.4-23.55h0s.12-.05.12-.05c21.74-9.74,47.17,1.07,55.24,23.48l.04.12Z"/>
      <path class="cls-3" d="M286.83,125.34h0c-9.26-22.08,2.31-47.37,25.08-54.79h0s.05.12.05.12c9.15,22.02-2.36,47.17-25.01,54.63l-.12.04Z"/>
      <path class="cls-3" d="M334.06,100.8c-.7.56-1.69-.12-1.42-.98,1.29-4.14,1.04-8.82.25-13.16-1.05-5.78-3.72-11.27-3.81-17.14-.04-2.73.51-5.51,1.39-8.21,1.26-3.83,6.46-4.44,8.52-.97,1.88,3.18,2.65,6.79,3.58,10.37.45,1.74,2.96,1.68,3.31-.09.77-3.85,1.03-7.96,2-11.55,1.45-5.34,3.78-10.53,7.45-14.67,4.14-4.65,9.43-6.79,15.16-8.68,2.19-.72,4.49.83,4.62,3.14.19,3.32,1.29,6.49,1.18,10.28-.22,6.99-3.96,13.5-8.88,18.47-3.93,3.96-9.17,6.35-13.71,9.55-1.01.71-.24,2.28.93,1.91,3.18-1,7.14-2.6,12.06-2.27,3.35.23,5.2,4.03,3.27,6.77-1.71,2.43-3.82,4.54-6.38,6.04-5.22,3.05-11.58,3.19-17.39,4.87-4.46,1.29-8.64,3.54-12.13,6.32Z"/>
      <path class="cls-3" d="M86.07,162.24c.97.08,1.44-1.13.7-1.75-5.22-4.33-8.63-10.73-11.01-17.18-2.84-7.67-4.59-15.78-8.27-23.08-5.77-11.43-14.35-19.54-26.73-22.27-.4-.09-.8.18-.87.58-2.89,16.57,6.24,33.2,19.32,45.19.28.26.04.71-.33.62-9.63-2.34-17.18-3.6-28.42,3.81-.58.38-.79,1.13-.49,1.75,5.58,11.64,18.09,11.96,28.83,13.23,9.87,1.17,16.92-1.72,27.28-.9Z"/>
      <path class="cls-3" d="M377.17,140.49c-.97,0-1.35-1.24-.56-1.79,5.54-3.9,9.45-10.02,12.33-16.26,3.43-7.43,5.81-15.37,10.06-22.36,6.65-10.94,15.84-18.35,28.39-20.1.4-.06.78.24.82.65,1.58,16.74-8.83,32.6-22.81,43.53-.3.23-.09.71.28.65,9.79-1.58,17.41-2.24,28.03,6.03.54.42.7,1.19.35,1.78-6.48,11.17-18.97,10.5-29.78,10.92-9.93.39-16.74-3.04-27.12-3.04Z"/>
      <path class="cls-3" d="M186.35,296.21c.6.6.21,1.63-.64,1.69-5.87.39-12.07,1.24-16.49,4.77-4.38,3.5-7.22,8.51-10.7,12.91-2.65,3.34-5.41,5.58-9.05,6.54-2.04.54-4.11-.77-4.45-2.85-1.18-7.24,1.6-13.32,7.57-21.5.51-.7-.17-1.65-.99-1.38-4.59,1.47-8.76,5.85-11.45,9.72-3.15,4.52-5.54,9.57-9.06,13.82-2.74,3.31-5.79,5.19-9.61,5.75-2.02.29-4-1.2-4.28-3.22-.82-6.01,1.77-12.28,5.55-17.7.58-.83-.3-1.91-1.22-1.5-7.66,3.36-12.9,11.47-20.22,15.99-6.24,3.86-13.69,3.68-21.1,2.7-.86-.11-1.44-.94-1.25-1.79,1.51-6.67,4.53-13.48,10.08-17.71,3.68-2.81,8.27-5.24,12.96-6.43,5.48-1.39,11.1-1.76,15.56-4.33.91-.52.58-1.91-.46-2-6.35-.53-13.97-.75-19.7-3.88-2.45-1.34-2.85-4.73-.81-6.64,6.85-6.43,16.51-8.59,25.66-6.33,10,2.48,17.27,13.07,28.7,11.66.56-.07.78-.77.36-1.15-4.34-3.91-9.09-8.58-9.3-14.42-.09-2.48,1.85-4.58,4.33-4.6,7.86-.06,14.65,3.93,20.06,12.05,3.53,5.28,14.33,14.26,19.93,19.86Z"/>
    </g>
    <g>
      <path class="cls-2" d="M247.8,221.88c-.87,1.11-2.66.63-2.82-.77-.58-5.17-2.5-10.21-4.8-14.92-2.97-6.11-6.6-11.92-9.04-18.27-1.47-3.82-2.48-7.93-2.59-12-.09-3.48,4.26-5.14,6.59-2.55,3.01,3.36,5.66,7.05,7.85,11.02.39.71,1.49.37,1.41-.44-.82-8.81-6.28-17.08-6.58-26.06-.11-3.14.42-6.23,1.19-9.29.66-2.62,4.12-3.17,5.64-.93,2.39,3.51,4.18,7.47,5.39,11.63.13.46.8.37.82-.11.46-13.86,4.61-26,14.5-35.97,1.81-1.82,4.89-1.3,5.96,1.04.85,1.85,1.58,3.62,2.11,6.25.92,4.58.52,9.23-.93,13.67-1.79,5.45-5.75,9.85-9.35,14.31-2.95,3.66-5.11,7.8-6.09,12.3-.16.75.82,1.18,1.28.56,3.01-4.05,6.42-7.79,10.13-11.14,1.97-1.78,5.08-.34,5.06,2.32-.04,4.23-1.09,8.46-3.08,12.2-3.86,7.23-11.04,12.58-14.72,19.68-.42.8.65,1.56,1.28.9,2.69-2.79,5.57-5.37,8.61-7.71,2.15-1.66,5.26.16,4.81,2.83-.57,3.47-1.98,6.84-3.82,9.85-2.95,4.82-6.96,8.87-10.91,12.9-2.78,2.84-5.57,5.72-7.91,8.72Z"/>
      <path class="cls-2" d="M73.68,58.37c-.55-.1-1.07.29-1.15.85-.72,5.52.96,11.48,4.51,15.76,3.48,4.2,9.04,7.3,14.52,7.76.69.06,1.27-.51,1.21-1.2-.36-4.09-.58-10.61-4.83-15.99-4.45-5.64-10.6-6.55-14.26-7.17Z"/>
      <path class="cls-2" d="M147.41,184.87c.54,1.49-1.1,2.8-2.44,1.94-4.14-2.66-8.74-4.58-13.55-5.63-6.19-1.35-12.76-1.29-18.58-3.79-4.78-2.05-8.73-5.71-11.86-9.86-.03-.04-.06-.08-.09-.12-2.86-3.81.81-9.1,5.4-7.83,4.03,1.11,8.19,1.89,12.33,2.58,1.31.22,2.09-1.4,1.12-2.31-6.92-6.44-18.12-7.74-25.44-14.04-7.87-6.77-10.4-21.22-11.71-30.47-.28-1.99,1.59-3.55,3.52-2.99,3.66,1.06,7.67.46,11.93,1.93,8.4,2.89,14.79,7.68,19.67,15.1,4.12,6.26,7.2,15.25,10.3,22.18.4.89,1.71.63,1.76-.34.27-5.36,1.53-10.68,3.63-15.63,2.61-6.15,11.51-5.43,13.05,1.07.84,3.53,1.27,7.78.69,12.85-.67,5.92-2.07,11.75-2.36,17.7-.29,6.03.6,12.11,2.62,17.68Z"/>
      <path class="cls-7" d="M55.64,297.32c-.21.52.06,1.11.59,1.3,5.24,1.88,11.42,1.49,16.35-1.07,4.85-2.51,9.05-7.29,10.66-12.55.2-.66-.23-1.35-.92-1.44-4.08-.51-10.49-1.68-16.65,1.33-6.45,3.15-8.64,8.97-10.03,12.42Z"/>
      <path class="cls-7" d="M375.37,103.62c0,.56.47,1.01,1.04.98,5.56-.25,11.13-2.95,14.73-7.18,3.54-4.15,5.62-10.17,5.12-15.65-.06-.69-.72-1.16-1.39-.98-3.97,1.07-10.35,2.42-14.91,7.54-4.78,5.36-4.6,11.58-4.59,15.29Z"/>
      <path class="cls-7" d="M245.3,123.16c-.6,1.48-2.71,1.42-3.21-.1-2.38-7.31-6.22-14.14-11.25-19.95-3.87-4.47-8.46-8.38-11.6-13.39-2.99-4.78-4.51-10.36-5.17-15.96-.32-2.74-.14-5,.29-7.28.83-4.31,5.7-6.47,9.4-4.12,1.37.87,2.71,1.94,4.27,3.5,2.11,2.12,3.91,4.53,5.42,7.12,1.98,3.38,3.96,6.75,5.93,10.15.74,1.27,2.63,1,2.99-.43,1.99-7.78,6.29-14.95,12.56-20.36,3.39-2.93,8.71-.21,8.35,4.26-.41,5.02-1.59,9.94-3.57,14.64-.36.86.62,1.66,1.37,1.1,2.41-1.78,5.16-3.13,8.1-3.96,2.93-.83,5.56,2,4.52,4.87-1.61,4.45-4.28,8.56-7.28,12.26-4.27,5.27-9.26,9.92-13.53,15.18-3.06,3.77-5.79,7.97-7.61,12.47Z"/>
      <path class="cls-7" d="M189.07,304.51c-.13-.74-.84-1.22-1.58-1.07-7.26,1.54-14,6.31-17.81,12.66-3.74,6.24-5.17,14.61-3.32,21.7.23.9,1.21,1.37,2.05.99,4.99-2.27,13.08-5.45,17.97-13.17,5.12-8.1,3.52-16.24,2.69-21.11Z"/>
      <path class="cls-7" d="M193.98,66.3c.12.45.72.56.99.18,2.62-3.74,6.93-6.03,10.96-8.29,4.71-2.66,9.64-5.95,10.97-11.33.19-.75.12-1.57-.24-2.25-.89-1.68-2.81-1.49-4.37-1.07-3.75.99-7.28,2.79-10.3,5.23-.17.14-.41-.04-.33-.24,1.57-4.07,4.95-7.21,8.01-10.37,3.48-3.6,6.87-7.94,6.47-13.06-.05-.69-.28-1.38-.69-1.93-1.32-1.78-3.36-1.21-4.96-.41-3.53,1.77-6.5,4.65-8.37,8.13-.24.45-.75.71-1.23.56-.69-.22-.64-1.07-.51-1.72,1.05-5.29,1.33-10.79.25-16.08-1.03-4.99-3.33-9.78-6.93-13.36-.36-.36-.95-.36-1.3.02-5.26,5.53-7.48,13.81-5.65,21.22.73,2.96,2.05,5.74,3.02,8.63.88,2.63,1.48,5.45.8,8.23-.06.25-.42.26-.5.01-1.15-3.47-2.86-6.74-5.06-9.65-.61-.81-1.28-1.61-2.14-2.15-.86-.54-1.95-.81-2.91-.47-1.47.51-2.18,2.18-2.5,3.7-.7,3.29-.44,6.79.76,9.94,2.28,6,7.58,10.27,11.09,15.63,2.19,3.35,3.68,7.15,4.7,10.94Z"/>
      <path class="cls-7" d="M325.19,246.92c-.7.09-1.02-.83-.44-1.22,8.31-5.54,14.93-13.55,19.12-22.64,2.76-5.98,4.51-12.42,7.66-18.21,3.34-6.15,8.74-11.75,15.8-12.62,1.28-.16,2.6-.05,3.77.51,3.41,1.66,3.18,5.58,2.31,8.71-1.41,5.07-3.99,9.81-7.51,13.72-.44.49-.62,1.21-.32,1.81.57,1.14,1.93.68,2.86.11,5.84-3.58,10.4-9.04,16.45-12.26,7.47-3.98,16.91-4.01,24.4-.09,1.32.69,2.66,1.59,3.16,2.99.52,1.47-.03,3.1-.67,4.52-4.88,10.79-15.91,18.54-27.72,19.48-3.77.3-7.59-.04-11.34.47-3.41.47-6.92,1.8-9.09,4.42-.27.32-.03.81.39.81,4.71.04,9.42.44,14.07,1.19,2.56.41,5.18.96,7.16,2.82.48.45.88.97,1.18,1.55,1.77,3.49-.77,6.59-3.55,8.4-5.88,3.82-13.41,4.18-20.32,2.96-6.9-1.22-13.46-3.88-20.22-5.71-5.59-1.51-11.54-2.45-17.15-1.75Z"/>
      <path class="cls-7" d="M89.02,103.82h0c-14.07,2.2-27.02-8.09-28.06-22.29h0s.08-.01.08-.01c14.02-2.15,26.9,8.09,27.97,22.23v.08Z"/>
      <path class="cls-7" d="M319.1,63.46h0c-12.8-13.63-11.22-35.28,3.41-46.92h0s.07.07.07.07c12.7,13.61,11.13,35.15-3.4,46.78l-.08.06Z"/>
      <path class="cls-7" d="M156.74,62.48h0c-17.21-7.31-24.5-27.76-15.81-44.3h0s.09.04.09.04c17.11,7.33,24.37,27.67,15.76,44.17l-.05.09Z"/>
      <path class="cls-7" d="M289.52,182.29h0c-11.35-21.09-2.26-47.37,19.7-56.95h0s.06.11.06.11c11.23,21.04,2.19,47.18-19.64,56.78l-.12.05Z"/>
      <path class="cls-7" d="M54.86,270.44h0c9.17-19.14,32.73-26.37,51.05-15.66h0s-.05.1-.05.1c-9.19,19.03-32.62,26.22-50.9,15.61l-.1-.06Z"/>
      <path class="cls-7" d="M66.96,175.29h0c20.67-4.8,41.03,9.09,44.12,30.09h0s-.11.03-.11.03c-20.6,4.71-40.85-9.1-43.99-30l-.02-.11Z"/>
      <path class="cls-2" d="M187.93,259c2.64,1.03,4.96-2.1,3.18-4.3-3.05-3.77-5.96-5.61-8.65-8.23-5.02-4.87-8.41-11.23-9.09-18.19-.99-10.18-3.92-28.3-15.91-31.67-.83-.23-1.72.05-2.27.72-5.9,7.15-2.3,15.99,1.01,25.25.41,1.15-.97,2.1-1.91,1.32-8.95-7.45-9.28-16.33-15.64-22.25-6.44-6-11.57-6.84-19.82-7.26-1.4-.07-2.68.85-2.98,2.22-1.93,8.65-.63,18.04,6.24,25.79,5.55,6.26,12.07,11.83,19.94,14.57.69.24.52,1.24-.2,1.26-7.03.17-14.01,1.7-20.38,4.38-5.02,2.11-5.41,9.13-.66,11.79,4.19,2.35,8.93,3.73,13.74,3.92,7.35.28,14.51-2.08,21.79-3.1,10.75-1.51,21.89,0,31.62,3.8Z"/>
      <path class="cls-2" d="M382.41,191.35c-.19,2.12,1.8,3.79,3.85,3.23,5.54-1.5,12.6-1.3,17.36-.77,0,0,0,0,0,0,.35.04.71.08,1.07.12.11.01.22.02.32.04,4.25.56,8.5,1.6,12.71.96,3.04-.46,5.9-1.58,8.61-3.04,2.96-1.6,2.63-5.93-.55-7.05-4.14-1.47-8.49-2.33-12.88-2.53-.91-.04-1.11-1.31-.25-1.62,8.84-3.27,17.65-6.87,24.32-13.36,3.09-3.01,5.24-6.68,7.26-10.51,2.07-3.93-1.09-8.55-5.51-8.07-2.07.23-4.1.58-6.08,1.26-6.25,2.18-11.43,6.62-16.13,11.26-3.91,3.87-7.64,7.98-11.92,11.41-.52.42-1.25-.18-.92-.77,1.93-3.42,3.19-7.22,4-11.08.34-1.65.61-3.32.82-5,.57-4.49-4.46-7.61-8.23-5.09-1.35.9-2.66,1.87-3.92,2.91-4.38,4.18-6.74,10-8.72,16.09,0,.04-.02.08-.04.12-.3,1.05-.6,2.07-.9,3.06-1.98,6.65-3.75,12.25-4.28,18.41Z"/>
    </g>
    <g>
      <path class="cls-4" d="M190.11,93.85c-.03.39.45.59.7.29.75-.91,2-2.29,3.76-3.37,4.53-2.78,8.54-2.12,10.71.7.48.63.87,1.21,1.6,1.52.54.24,1.45.48,2.27.69.39.1.37.65-.02.74-.98.21-2.28.68-3.68,1.75-3.43,2.63-3.22,5.97-6.62,10.92-3.07,4.48-6.26,6.31-9.79,7.77-4.11,1.7-8.05,2.23-12.19,1.78-2.95-.32-5.89.63-8.18,2.52-2.08,1.72-4.49,3.31-6.33,4.48-.55.35-1.19-.24-.91-.83.4-.86.73-1.74.98-2.61.08-.26-.22-.46-.45-.31-1.51,1.06-3.16,1.93-4.88,2.58-.98.37-1.8-.81-1.13-1.61.82-.98,1.61-1.99,2.36-3.03.3-.42-.11-.97-.6-.82-1.41.43-2.92.52-4.4.26-.87-.15-.95-1.37-.1-1.62,6.05-1.77,11.85-4.38,17.12-7.86.18-.12.11-.4-.11-.43-4.28-.44-8.19-3.01-10.93-6.35-2.88-3.52-4.62-7.83-5.95-12.18-1.08-3.52-1.9-7.35-1.32-10.92.22-1.36,1.93-1.81,2.79-.73,4.29,5.46,9.53,10.26,15.73,13.27.27.13.54-.21.34-.44-1.13-1.27-1.9-2.94-2.24-4.68-1.91-9.83-1.32-20.14,1.52-29.42.3-.99,1.5-1.37,2.31-.73,11.71,9.18,18.74,24.05,17.64,38.65Z"/>
      <path class="cls-8" d="M1.37,247.6c.7.34,1.44.64,2.17.88,2.45.84,5.02,1.33,7.43,2.3,2.03.81,3.93,1.95,5.91,2.91,1.97.95,4.09,1.73,6.29,1.74,1.76.02,2.92-.86,4.21-1.87.28-.21.66.05.58.4-.24.93-.21,1.86.3,2.87.27.51.63.97,1.07,1.35,1.43,1.25,3.22,1.7,5,2.14,3.15.77,6.43,1.55,9.52,1.1.65-.09,1.02-.78.79-1.39-.99-2.52-2.27-4.96-3.84-7.11,2.62,1.96,4.72,3.07,5.13,2.59.47-.54-1.44-2.96-4.39-5.69,2.98,1.53,6.14,2.76,9.4,3.6,2.18.57,4.72.9,6.49-.5,1.29-1.02,1.81-2.73,2.06-4.35.28-1.88.28-3.83-.33-5.63-.6-1.8-1.84-3.44-3.57-4.23-1.51-.68-3.25-.69-4.87-.33-1.21.27-2.36.74-3.5,1.25-.16.07-.29-.14-.15-.25,1.84-1.42,3.83-2.77,5.26-4.61,1.69-2.18,2.71-5.05,2.06-7.72-.35-1.46-1.16-2.76-1.9-4.06-2.13-3.78-3.74-7.87-4.63-12.13-.19-.89-.34-1.8-.73-2.62-.39-.82-1.06-1.57-1.93-1.82-1.66-.47-3.23.92-4.3,2.27-4.05,5.12-6.46,11.44-7.27,17.92-.74,5.89-.21,11.89,1.25,17.64-.31-.22-.57-.4-.8-.54-.28-.18-.44-.47-.51-.79-.02-.08-.04-.17-.08-.26-.38-.98-1.51-1.45-2.48-1-.53-1.08-.94-2.24-1.42-3.67-.06-.18-.32-.8-.73-.67-.45.13-.41.6-.35.79.52,1.57,1.34,2.72,2.1,3.8-.13.1-.25.23-.35.37-1.06-.74-2.2-1.53-3.73-2.03-.19-.06-.66-.09-.78.36-.13.41.5.66.68.73,1.42.46,2.56.86,3.61,1.38-.08.22-.12.46-.1.69.06.97.8,1.64,1.64,1.73.4.05.76.27,1.04.57.28.31.67.69,1.15,1.16-9.73-4.89-21.17-6.27-31.8-3.95-2.29.5-2.71,3.65-.6,4.68Z"/>
      <path class="cls-1" d="M298.03,28.57c-1.19.65-2.5,1.09-3.67,1.77-3.49,2.06-5.38,6.13-8.79,8.33-3.58,2.31-8.6,1.76-12.03-.59-.11-.08-.23.05-.16.16,1.62,2.24,1.77,5.6.19,7.99-1.98,3.01-5.76,4.47-9.31,4.69-.8.05-5.78-.17-4.85-6.91.26-1.9.78-3.74,1.3-5.62-.76,1.3-1.61,2.56-2.46,3.8-.26.38-.85.17-.82-.28.08-1.12.17-2.25.29-3.39-2.41,6.1-6.29,11.95-11.35,9.9-2.13-.86-4.18-2.89-5.26-4.91-3.86-7.23,2.24-10.81,3.52-11.78-1.84.2-3.82.45-5.77.19-1.95-.26-3.91-1.09-5.11-2.64-1.35-1.73-1.6-4.05-2.45-6.07-1.53-3.59-4.89-6-7.24-9.11-.64-.85-1.22-1.77-1.48-2.79-.28-1.03-.21-2.18.35-3.07.82-1.29,2.43-1.79,3.94-2,4.05-.58,8.22.21,12.03,1.69,3.82,1.49,7.32,3.66,10.72,5.94,2.57,1.72,5.12,3.54,7.17,5.86,1.81,2.04,3.57,4.54,3.77,7.2.32-.65.68-1.28,1.1-1.88.22-.3.18-.69.01-1.03-.1-.18-.15-.42-.16-.7-.02-.85.42-1.46,1.17-1.74.16-.06.27-.21.24-.38-.16-.94-.63-3.8-.51-4.18,0-.03.04-.05.07-.05.01,0,.02.01.03.02,1.01.75.97,4.19.97,4.21,0,.04,0,.15.01.18.02.05.54.1.55.07.01-.02.05-.15.06-.18h0c.48-1.59,1.4-3.48,2.4-3.82.03-.01.07,0,.08.04,0,0,0,.02,0,.03-.21,1.45-.9,2.07-1.97,3.76-.12.18-.06.44.1.58.35.3.57.74.54,1.26-.03.73-.35,1.34-.73,1.68-.51.53-.48.99-.41,1.43.02.16.04.31.05.47,8.01-6.73,18.32-10.1,28.69-8.24,11.89,2.12,7.75,8.69,5.15,10.12Z"/>
      <path class="cls-8" d="M315.29,121.38c-.2-.02-.24-.31-.04-.36,1.53-.4,2.72-1.23,3.83-2.35,1.47-1.49,2.78-3.24,4.66-4.18,1.77-.88,3.9-.91,5.78-.29,1.67.55,3.15,1.59,4.17,3,.17.23.52.18.64-.08,2.86-6.09,8.51-10.59,14.69-13.31,5.52-2.43,11.48-3.59,17.47-4.52.83-.13,1.35.88.75,1.47-3.35,3.26-6.11,7.13-8.07,11.38-1.13,2.44-2.02,5.03-3.58,7.22-1.32,1.85-3.26,3.42-5.41,3.8-.3.05-.33.47-.05.58,7.73,3.11,16.74,2.82,24.16-.83.69-.34,1.4.47.96,1.1-1.41,2.05-3.11,3.89-5.05,5.39-.22.17-.18.51.08.62,1.38.62,2.65,1.49,3.74,2.61.44.45.01,1.2-.6,1.06-3.61-.82-7.5-.28-11.2.36-3.71.64-7.55,1.35-11.19.83-.51-.07-.8.58-.41.91,4.17,3.57,8.66,6.74,13.42,9.34.7.39.48,1.45-.32,1.53-35.31,3.47-34.82-14.84-39.25-21.69-1.73-2.67-5.41-3.33-9.15-3.61Z"/>
      <path class="cls-5" d="M405.66,234.96c.35,4.84,4.33,8.92,8.95,10.35,3.09.96,6.39.88,9.55.14-1.24,1.04-2.36,2.21-3.31,3.54-.33.44.07,1.07.62.95,3.76-.82,7.52-2.69,10.35-5.39.64-.61,1.47-.97,2.34-1.09,1.49-.21,2.89-1.07,3.76-2.3.22-.33.61-.51,1-.49.76.06,1.54-.1,2.23-.44,1.09-.37,1.58-1.13,1.6-1.84,2.47-.18,3.45.13,4.94-.61,0,0,.02,0,.02-.02.03-.03.02-.07-.01-.09-.95-.69-3.29-.28-4.98.3-.02-.06-.03-.11-.06-.17,0,0,.03-.01.04-.02,3.06-1.41,3.88-1.99,4.12-2.25.03-.03.02-.07,0-.09,0,0-.02-.01-.03-.02-.8-.34-2.86.67-4.38,1.91-.4-.47-1.11-.71-2.05-.39-.87.39-1.61,1-2.18,1.71-.24.3-.89.68-.97.54.11-.1.23-.2.34-.3,1.19-.95,2.29-2.01,3.24-3.21,7.2-9.1,11.76-21.4,10.24-32.51-.29-2.12-2.54-3.4-4.5-2.53-2.41,1.08-4.62,2.56-6.46,4.37-.28.28-.75.13-.81-.26-.41-2.35-1.2-4.63-2.39-6.78-1.49-2.65-5.27-2.61-6.73.06-.98,1.8-2.13,3.52-3.28,5.22-2.31,3.38-4.73,6.77-6.1,10.63-1.28,3.62-1.54,7.79.08,11.12.09.18-.1.39-.28.29-3.07-1.62-7-1.55-9.99.24-3.2,1.91-5.16,5.71-4.89,9.43Z"/>
    </g>
  </g>
  <path class="cls-6" d="M774.28,177.89c-.02-.96-.16-1.86-.39-2.69.29.88.43,1.79.39,2.69Z"/>
  <g>
    <path class="cls-1" d="M412.09,400.67c-13.21-10.71-25.06-30.87-40.84-52.12,14.55-3.07,26.15-15.19,27.52-30.38.56-6.06-2.29-14.98-6.45-19.45-5.5-5.88-15.26-10.61-39.64-11.38-6.34-.21-45.98,1.41-52,2.75-2.89.67-2.89,4.33-.25,4.33,3.28,0,9.9-.88,12.83,2.82,2.4,3.03,2.75,8.7,2.75,15.68,0,22.94-.04,70.16-.04,70.16,0,17.34,11.37,15.79,16.59,15.79h3.91v-46.27l15.01.04c6.52,13.14,14.24,26.96,24.14,37.78,9.3,10.18,20.62,18.71,33.44,23.93,17.53,7.17,35.47,3.03,44.82-.17.81-.28.53-1.47-.32-1.38-9.12.97-25.87.49-41.46-12.12ZM336.61,345.7c.11-17.06-.04-33.72-.14-50.39,11.7-2.61,29.5-1.23,35.63,8,3.42,5.18,7.15,18.82-.07,30.83-4.62,7.65-9.73,11.56-35.42,11.56Z"/>
    <path class="cls-1" d="M996.14,291.71l-33.58,106.04h-13.32l-24.46-69.81-20.18,62.05c-1.86,5.71-7.35,9.87-13.31,9.13-4.33-.53-8.75-3.33-11.59-11.52,0,0-15.47-48.07-22.98-69.7-6.98-20.02-6.98-24.91-19.03-23.5-4.76.56-4.69-3-1.87-4.19,8.3-.95,14.37-2.19,29.24-2.18,4.23,0,7.96,2.73,9.14,6.8,5,17.2,16.53,59.46,22.93,82.96l24.39-80.8,15.47.46,22.77,74.46,23.22-80.17h13.14Z"/>
    <path class="cls-1" d="M536.11,326.77c27.65,0,40.09,18.29,40.1,38.04,0,19.75-12.44,38.05-40.09,38.05-27.66,0-40.09-18.29-40.1-38.04,0-19.75,12.44-38.05,40.09-38.05ZM536.19,395.24c13.87.08,19.7-11.55,19.83-30.28.11-18.58-5.4-30.39-19.99-30.56-13.86-.08-19.7,11.55-19.83,30.28-.12,18.58,5.4,30.39,19.99,30.56Z"/>
    <path class="cls-1" d="M449.55,326.77c27.65,0,40.09,18.29,40.1,38.04,0,19.75-12.44,38.05-40.09,38.05-27.66,0-40.09-18.29-40.1-38.04,0-19.75,12.44-38.05,40.09-38.05ZM449.63,395.24c13.87.08,19.7-11.55,19.83-30.28.11-18.58-5.4-30.39-19.99-30.56-13.86-.08-19.7,11.55-19.83,30.28-.12,18.58,5.4,30.39,19.99,30.56Z"/>
    <path class="cls-1" d="M631.81,390.88c.79.41,1.07,1.46.53,2.17-4.89,6.5-13.31,9.86-18.73,9.82-11.85,0-24.87-4.24-24.87-23.71v-41.58h-7.94c-1.44,0-2.6-1.16-2.6-2.6v-3.09c0-1.06.86-1.92,1.92-1.92h8.55s0-16.94,0-16.94c0-4.53,3.67-8.21,8.21-8.21h9.85c1.22,0,2.2.99,2.2,2.2v22.94h17.33c.9,0,1.63.75,1.61,1.66-.09,3.71-.86,5.95-7.01,5.95h-11.93v38.94c0,11.56.15,18.46,6,18.73,7.08.33,11.17-3.51,12.69-5.31.44-.52,1.18-.65,1.79-.33l2.41,1.27Z"/>
    <path class="cls-1" d="M668.78,324.58c16.52,0,27.12,6.71,28.05,16.3.21,2.18-1.18,4.21-3.17,5.12h0c-1.8.82-4.01-.35-4.08-2.33-.36-9.43-13.95-11.49-20.35-11.49-8.93,0-13.76,4.39-13.76,9.51,0,6.73,5.13,10.47,18.15,14.12,15.51,4.24,27.77,9.96,27.77,22.31,0,16.82-13.14,24.71-29.83,24.71-23.39,0-31.63-7.69-33.59-15.53-.58-2.34.47-4.79,2.5-6.11h0c1.25-.81,2.89-.42,3.66.85,2.79,4.61,10.51,14.25,26.26,14.25,9.07,0,12.73-5.37,12.73-11.81,0-8.34-7.17-10.68-17.71-13.9-16.1-4.54-26.89-8.49-26.89-22.83s12.4-23.19,30.25-23.19Z"/>
    <path class="cls-1" d="M1244.66,325.69c16.52,0,27.12,6.71,28.05,16.3.21,2.18-1.18,4.21-3.17,5.12h0c-1.8.82-4.01-.35-4.08-2.33-.36-9.43-13.95-11.49-20.35-11.49-8.93,0-13.76,4.39-13.76,9.51,0,6.73,5.13,10.47,18.15,14.12,15.51,4.24,27.77,9.96,27.77,22.31,0,16.82-13.14,24.71-29.83,24.71-23.39,0-31.63-7.69-33.59-15.53-.58-2.34.47-4.79,2.5-6.11h0c1.25-.81,2.89-.42,3.66.85,2.79,4.61,10.51,14.25,26.26,14.25,9.07,0,12.73-5.37,12.73-11.81,0-8.34-7.17-10.68-17.71-13.9-16.1-4.54-26.89-8.49-26.89-22.83s12.4-23.19,30.25-23.19Z"/>
    <path class="cls-1" d="M1120.03,394.97c-2.26.28-4.05-1.94-4.05-4.23l-.04-47.82c0-13.38-12.59-18.83-21.21-20.3-7.86-1.34-16.17.81-22.69,5.39-3.03,2.15-5.67,4.79-7.82,7.79-1.76-12.65-18.43-11.1-25.13-8.49-1.27.49-.74,2.5.53,2.33,2.26-.28,4.05,1.94,4.05,4.23l.04,52.68c0,12.02,11.63,13.46,19.91,12.16.46-.07.78-.46.78-.92v-25.13l-.04-28.69c1.94-2.68,4.23-5.04,7.01-6.77,4.51-2.89,10.36-4.02,15.4-2.19,4.9,1.76,8.49,6.24,8.49,11.38v.56l.04,39.57c0,15.05,18.18,13.5,25.27,10.75,1.27-.49.74-2.5-.53-2.33Z"/>
    <g>
      <path class="cls-1" d="M1031.19,394.97c-2.26.28-4.05-1.94-4.05-4.23l-.04-52.68c0-15.08-18.18-13.5-25.27-10.75-1.27.49-.74,2.5.53,2.33,2.26-.28,4.05,1.94,4.05,4.23l.04,52.68c0,15.05,18.18,13.5,25.27,10.75,1.27-.49.74-2.5-.53-2.33Z"/>
      <ellipse class="cls-1" cx="1016.78" cy="301.25" rx="12.11" ry="10.25"/>
    </g>
    <path class="cls-1" d="M841.53,393.84c-12.12-1.23-20.78-3.64-26.6-5.84-5.28-2-10.11-4.96-14.34-8.7-7.74-6.85-18.1-17.15-26.09-27.19,0-.04,15.4-8.92,19.8-14.03,4.4-5.11,5.25-12.16,2.29-18.18-6.1-12.51-23.29-13.74-35.7-10.5-5.53,1.44-10.96,4.12-14.45,8.67-3.95,5.11-4.93,12.16-3.56,18.47,1.37,6.34,5.96,11.31,10.43,16.63-6.98,3.59-17.16,9.83-20.79,17.02-3.59,7.15-2.18,13.81,2.82,20.12,5.78,7.26,18.43,11.45,32.67,11.03.49,0,1.02-.04,1.52-.04.7-.04,1.44-.11,2.18-.14,3.14-.25,6.38-.74,9.59-1.48.11-.04.18-.04.28-.07.67-.14,1.34-.28,2.04-.49,4.51-1.09,9.44-2.71,14.38-5.11.85.35,1.73.74,2.61,1.09,15.51,6.34,31.36,3.84,41.27.95,1.3-.35,1.02-2.29-.35-2.22ZM769.82,314.27c9.06,0,13.99,9.16,10.89,16.42-2.92,6.84-8.03,10.61-12.65,15.22-5.5-6.13-8.56-10.61-8.99-18.68-.35-6.77,3.91-12.97,10.75-12.97ZM759.03,391.09c-10.25-4.76-14.62-13.57-10.47-22.38,1.87-3.95,5.67-6.98,9.27-8.74,2.92,3.28,6.06,6.7,9.37,10.08,4.33,4.4,9.06,8.77,14.17,12.72l9.42,7.3c-9.62,4.09-23.86,4.65-31.76,1.02Z"/>
    <path class="cls-1" d="M769.53,401.31c-.53.04-1.02.07-1.48.07l-.04-.04c.49,0,1.02-.04,1.52-.04Z"/>
    <path class="cls-1" d="M1202.79,383.46v-4.8l-.04-39.61c0-8.02-4.97-11.42-10.75-12.42h-.07c-9.06-1.86-55.5-10.23-64.56,28.52-1.48,6.48-1.62,13.31.18,19.68,2.08,7.23,6.7,13.71,12.79,17.93,6.13,4.26,13.74,6.26,21.11,5.62,8.46-.79,16.6-5.22,21.6-12.13,1.9,12.67.32,30.38-8.07,41.94-5.85,8.12-13.67,13.78-29.81,10.99-6.59-1.15-10.22-6.58-10.92-12.02-.74-5.48-.53-10.91,4.44-13.28.92-.43,1.83-1.29,1.76-2.29-.04-.89-.92-1.5-1.73-1.86-6.77-3.15-15.54-1.04-20.16,4.9-4.62,5.94-5.32,15.71-.04,21.08,10.01,10.16,34.64,16.14,55.43,5.8,11.88-5.9,19.88-14.89,24.63-27.41,2.75-7.26,3.91-14.96,4.23-22.69v-7.52c-.04-.14-.04-.29-.04-.43ZM1180.27,382.57c-2.18,2.58-5.39,4.04-8.6,4.97-3.49,1.04-7.26,1.5-10.82.72-4.76-1.11-8.81-4.47-11.42-8.66-2.57-4.22-3.74-9.2-4.05-14.14-.53-8.77,1.44-19.25,6.45-26.41,4.83-7.01,11.21-10.09,21.78-9.66.81.04,2.36.29,3.91.61.14.07.32.11.49.14,2.11.47,4.05,2.33,4.05,4.65l.04,44.41c0,.18,0,.32.04.47-.49,1.04-1.13,2-1.87,2.9Z"/>
    <path class="cls-7" d="M808.27,380.66c4.82-2.42,7.06-7.61,7.55-12.78.49-5.16-.42-10.38-.03-15.55.62-8.16,4.61-16,10.83-21.31,4.1,6.14,6.85,13.29,7.22,20.66.37,7.38-1.75,14.97-6.44,20.68-4.69,5.71-12.03,9.32-19.14,8.3Z"/>
    <path class="cls-7" d="M808.06,374.01c-8.38-5.1-13.51-15.11-12.75-24.89,5.25,1.43,9.86,5.06,12.49,9.82,2.62,4.77,3.22,10.61.27,15.07Z"/>
    <path class="cls-7" d="M825.85,378.76c5.57-7.71,16.11-11.43,25.28-8.92-1.96,4.48-5.87,8.06-10.5,9.63-4.63,1.57-9.91,1.1-14.78-.72Z"/>
  </g>
  <g>
    <path class="cls-5" d="M466.2,445.42v-21.01c0-.79.38-1.3,1.2-1.3s1.17.51,1.17,1.24v21.14c0,.7-.38,1.27-1.17,1.27s-1.2-.57-1.2-1.33Z"/>
    <path class="cls-5" d="M509.87,445.45v-20.03c0-1.52.32-2.31,1.74-2.31,1.14,0,1.74.79,2.44,1.93l9.19,14.83c.73,1.2,1.49,2.44,2.28,4.02-.16-1.55-.38-5.36-.38-7.54v-11.98c0-.76.41-1.24,1.23-1.24s1.14.51,1.14,1.24v20.6c0,.82-.22,1.77-1.39,1.77-1.05,0-1.46-.63-3.14-3.33l-9.09-14.54c-.63-1.01-1.2-2.06-1.96-3.26.25,1.55.28,4.21.28,7.57v12.26c0,.76-.38,1.3-1.14,1.3-.86,0-1.2-.54-1.2-1.3Z"/>
    <path class="cls-5" d="M587.38,434.77c0,7.51-4.12,11.88-12.29,11.88h-5.07c-.67,0-1.2-.41-1.2-1.2v-20.95c0-.73.41-1.27,1.2-1.27h5.04c8.21,0,12.33,4.02,12.33,11.53ZM575.14,444.47c7.04,0,9.82-3.83,9.82-9.73s-2.82-9.35-9.82-9.35h-3.2c-.67,0-.79.25-.79.79v18.28h3.99Z"/>
    <path class="cls-5" d="M628.66,445.42v-21.01c0-.79.38-1.3,1.2-1.3s1.17.51,1.17,1.24v21.14c0,.7-.38,1.27-1.17,1.27s-1.2-.57-1.2-1.33Z"/>
    <path class="cls-5" d="M672.32,445.67c0-.51.32-1.14.82-2.41l6.75-16.95c.82-2.06,1.14-3.3,2.91-3.3s1.96,1.24,2.79,3.3l6.81,16.98c.47,1.24.82,1.87.82,2.38,0,.76-.67,1.17-1.27,1.17-.95,0-1.14-.67-1.84-2.63l-1.81-4.91h-11.12l-1.78,4.91c-.7,1.96-.92,2.63-1.84,2.63-.6,0-1.27-.41-1.27-1.17ZM687.57,437.34l-1.96-4.94-2.82-7.42-2.85,7.42-1.93,4.94h9.57Z"/>
    <path class="cls-5" d="M734.53,445.45v-20.03c0-1.52.32-2.31,1.74-2.31,1.14,0,1.74.79,2.44,1.93l9.19,14.83c.73,1.2,1.49,2.44,2.28,4.02-.16-1.55-.38-5.36-.38-7.54v-11.98c0-.76.41-1.24,1.23-1.24s1.14.51,1.14,1.24v20.6c0,.82-.22,1.77-1.39,1.77-1.05,0-1.46-.63-3.14-3.33l-9.09-14.54c-.63-1.01-1.2-2.06-1.96-3.26.25,1.55.28,4.21.28,7.57v12.26c0,.76-.38,1.3-1.14,1.3-.86,0-1.2-.54-1.2-1.3Z"/>
    <path class="cls-5" d="M793.46,445.67c0-.51.32-1.14.82-2.41l6.75-16.95c.82-2.06,1.14-3.3,2.91-3.3s1.96,1.24,2.79,3.3l6.81,16.98c.47,1.24.82,1.87.82,2.38,0,.76-.67,1.17-1.27,1.17-.95,0-1.14-.67-1.84-2.63l-1.81-4.91h-11.12l-1.77,4.91c-.7,1.96-.92,2.63-1.84,2.63-.6,0-1.27-.41-1.27-1.17ZM808.71,437.34l-1.96-4.94-2.82-7.42-2.85,7.42-1.93,4.94h9.57Z"/>
    <path class="cls-5" d="M855.66,445.45v-20.88c0-.89.35-1.33,1.14-1.33h6.21c5.07,0,7.7,2.47,7.7,6.62,0,5.13-3.93,6.75-7.67,6.75h-5.04v8.84c0,.73-.38,1.3-1.2,1.3-.76,0-1.14-.54-1.14-1.3ZM868.34,429.96c0-3.52-2.12-4.59-5.77-4.59h-3.83c-.57,0-.73.25-.73.76v8.46h5.29c1.77,0,5.04-.79,5.04-4.63Z"/>
    <path class="cls-5" d="M912,434.87c0-7.45,5.2-11.91,11.38-11.91s11.34,4.47,11.34,11.91-5.2,12.01-11.34,12.01-11.38-4.63-11.38-12.01ZM932.35,434.87c0-6.24-4.12-9.79-8.97-9.79s-9,3.55-9,9.79,4.15,9.92,9,9.92,8.97-3.68,8.97-9.92Z"/>
    <path class="cls-5" d="M976.01,445.39v-21.01c0-.76.38-1.27,1.11-1.27.89,0,1.23.48,1.23,1.2v19.62c0,.32.1.51.44.51h8.87c.82,0,1.17.48,1.14,1.08,0,.57-.35,1.11-1.17,1.11h-10.52c-.73,0-1.11-.41-1.11-1.24Z"/>
    <path class="cls-5" d="M1030.1,445.42v-21.01c0-.79.38-1.3,1.2-1.3s1.17.51,1.17,1.24v21.14c0,.7-.38,1.27-1.17,1.27s-1.2-.57-1.2-1.33Z"/>
    <path class="cls-5" d="M1075.1,444.91c-.82-.6-1.33-1.3-1.33-1.93,0-.67.47-1.17,1.14-1.17.92,0,1.17.7,1.9,1.36.67.6,1.9,1.55,4.34,1.55,2.69,0,5.13-1.39,5.13-4.06,0-3.23-2.92-3.8-5.67-4.75-4.12-1.43-6.3-3.33-6.3-6.69,0-4.34,3.77-6.21,7.29-6.21s6.4,2,6.4,3.61c0,.7-.47,1.11-1.11,1.11-.79,0-1.01-.67-1.87-1.3-.92-.67-1.81-1.3-3.55-1.3-2.95,0-4.78,1.68-4.78,4.02-.03,2.47,1.71,3.64,5.01,4.78,3.3,1.17,6.94,1.93,6.94,6.59s-3.93,6.31-7.6,6.31c-2.5,0-4.56-.86-5.93-1.93Z"/>
  </g>
</svg>